<?xml version="1.0" encoding="UTF-8"?>
<!DOCTYPE svg PUBLIC "-//W3C//DTD SVG 1.1//EN" "http://www.w3.org/Graphics/SVG/1.1/DTD/svg11.dtd">
<svg xmlns="http://www.w3.org/2000/svg" version="1.1" width="128px" height="128px" style="shape-rendering:geometricPrecision; text-rendering:geometricPrecision; image-rendering:optimizeQuality; fill-rule:evenodd; clip-rule:evenodd" xmlns:xlink="http://www.w3.org/1999/xlink">
<g><path style="opacity:0.85" fill="#553048" d="M 91.5,2.5 C 96.9306,2.72815 102.264,3.56148 107.5,5C 109.451,6.73423 110.451,8.9009 110.5,11.5C 114.382,10.3629 118.216,10.3629 122,11.5C 124.052,14.4602 123.886,17.2935 121.5,20C 124.097,22.3167 124.93,25.15 124,28.5C 119.434,33.0664 114.934,37.5664 110.5,42C 124.507,62.2502 126.007,83.4169 115,105.5C 99.8989,124.891 80.7323,130.224 57.5,121.5C 55.7738,123.03 53.7738,124.03 51.5,124.5C 43.0278,122.758 36.3612,118.258 31.5,111C 28.8333,110.667 26.1667,110.333 23.5,110C 22.0936,107.555 20.7602,105.055 19.5,102.5C 17.8068,101.772 16.3068,100.772 15,99.5C 14.7852,96.1443 14.7852,92.811 15,89.5C -4.2774,59.7824 0.88927,35.2824 30.5,16C 45.8805,9.9016 61.2138,10.0683 76.5,16.5C 81.5464,11.7836 86.5464,7.11691 91.5,2.5 Z"/></g>
<g><path style="opacity:1" fill="#7d3e62" d="M 100.5,34.5 C 103.251,30.243 106.584,26.4097 110.5,23C 107.813,23.7086 105.146,24.3753 102.5,25C 101.521,23.2215 101.854,21.5548 103.5,20C 101.546,20.4531 99.7125,20.6198 98,20.5C 95.9851,18.5217 96.1517,16.6884 98.5,15C 93.7611,15.698 89.4278,17.5313 85.5,20.5C 84.2073,19.3552 83.0407,19.6885 82,21.5C 81.3333,20.5 81.3333,19.5 82,18.5C 85.8333,14.6667 89.6667,10.8333 93.5,7C 94.631,7.10848 95.631,7.60848 96.5,8.5C 98.2743,8.11319 99.941,7.44652 101.5,6.5C 102.386,7.32496 102.719,8.32496 102.5,9.5C 104.5,9.83333 106.5,10.1667 108.5,10.5C 108.5,13.1667 108.5,15.8333 108.5,18.5C 112.246,16.5815 115.246,17.4148 117.5,21C 116.87,22.892 115.87,24.5587 114.5,26C 115.624,26.2492 116.624,26.7492 117.5,27.5C 113.482,31.3527 109.315,35.0194 105,38.5C 103.333,37.2668 101.833,35.9335 100.5,34.5 Z"/></g>
<g><path style="opacity:1" fill="#c6859f" d="M 76.5,21.5 C 75.0582,22.8195 74.3915,24.4862 74.5,26.5C 62.0543,29.9799 51.5543,36.6466 43,46.5C 37.5235,56.082 30.5235,64.4153 22,71.5C 21.1553,73.6115 20.322,75.6115 19.5,77.5C 14.4713,57.1316 20.138,40.2983 36.5,27C 46.7729,21.3492 57.7729,19.0159 69.5,20C 39.5788,12.5418 20.7455,23.7085 13,53.5C 12.3333,58.8333 12.3333,64.1667 13,69.5C 14.542,74.6277 16.3753,79.6277 18.5,84.5C 17.1667,84.8333 15.8333,85.1667 14.5,85.5C 2.72819,66.5088 3.89486,48.5088 18,31.5C 35.1213,13.9827 54.6213,10.6494 76.5,21.5 Z"/></g>
<g><path style="opacity:1" fill="#dbacbe" d="M 19.5,77.5 C 19.7215,80.0673 20.3882,82.4006 21.5,84.5C 22.0283,85.8474 22.195,87.1807 22,88.5C 21.0513,86.9069 19.8846,85.5736 18.5,84.5C 16.3753,79.6277 14.542,74.6277 13,69.5C 12.3333,64.1667 12.3333,58.8333 13,53.5C 20.7455,23.7085 39.5788,12.5418 69.5,20C 57.7729,19.0159 46.7729,21.3492 36.5,27C 20.138,40.2983 14.4713,57.1316 19.5,77.5 Z"/></g>
<g><path style="opacity:1" fill="#943d6f" d="M 100.5,34.5 C 98.8333,33.8333 97.1667,33.1667 95.5,32.5C 94.8333,32.1667 94.1667,31.8333 93.5,31.5C 91.5,29.8333 89.5,28.1667 87.5,26.5C 86.3747,24.8712 85.0414,23.3712 83.5,22C 84.0442,21.2828 84.7109,20.7828 85.5,20.5C 89.4278,17.5313 93.7611,15.698 98.5,15C 96.1517,16.6884 95.9851,18.5217 98,20.5C 99.7125,20.6198 101.546,20.4531 103.5,20C 101.854,21.5548 101.521,23.2215 102.5,25C 105.146,24.3753 107.813,23.7086 110.5,23C 106.584,26.4097 103.251,30.243 100.5,34.5 Z"/></g>
<g><path style="opacity:1" fill="#d9acbe" d="M 49.5,27.5 C 52.2469,27.1866 54.9135,27.52 57.5,28.5C 47.8535,36.3121 38.3535,44.3121 29,52.5C 30.8702,40.1271 37.7035,31.7937 49.5,27.5 Z"/></g>
<g><path style="opacity:1" fill="#a76586" d="M 93.5,31.5 C 94.1667,31.8333 94.8333,32.1667 95.5,32.5C 96.973,34.3947 98.6397,36.0613 100.5,37.5C 99.2073,39.2959 97.7073,40.9625 96,42.5C 95.6667,41.5 95.3333,40.5 95,39.5C 94.2571,41.4406 94.4238,43.2739 95.5,45C 93.1157,49.3931 89.949,53.2265 86,56.5C 82.7387,68.5234 77.2387,79.3567 69.5,89C 83.4803,81.6103 91.3136,69.777 93,53.5C 92.847,68.6387 86.6803,80.8054 74.5,90C 71.5932,91.6091 68.9266,93.4424 66.5,95.5C 61.3559,97.7 56.0225,99.3666 50.5,100.5C 49.8333,100.5 49.5,100.167 49.5,99.5C 57.7178,97.8035 64.2178,93.4702 69,86.5C 74.9195,78.9972 78.9195,70.6639 81,61.5C 68.8624,72.6369 57.0291,84.1369 45.5,96C 43.8925,95.9813 42.2259,95.8146 40.5,95.5C 36.2595,92.8816 31.9262,90.5482 27.5,88.5C 28.7498,88.4226 29.5831,87.756 30,86.5C 30.3333,84.5 30.6667,82.5 31,80.5C 31.3333,83.1667 31.6667,85.8333 32,88.5C 33.4737,85.6751 34.9737,85.3418 36.5,87.5C 50.0975,76.0589 63.7641,62.2256 77.5,46C 79.286,45.2155 80.786,44.0488 82,42.5C 82.3333,42.8333 82.6667,43.1667 83,43.5C 85.7849,38.9934 89.2849,34.9934 93.5,31.5 Z"/></g>
<g><path style="opacity:1" fill="#bb7a97" d="M 76.5,21.5 C 78.9538,22.2271 81.2872,23.2271 83.5,24.5C 80.0925,28.4114 76.4258,32.2447 72.5,36C 76.8464,35.4644 81.1797,34.7977 85.5,34C 69.5817,40.5831 57.415,51.4164 49,66.5C 46.6667,71.1667 44.3333,75.8333 42,80.5C 45.6361,65.4979 53.4694,52.9979 65.5,43C 51.7888,49.7793 42.2888,60.6126 37,75.5C 36.6667,74.1667 36.3333,72.8333 36,71.5C 34.6932,72.7717 33.1932,73.7717 31.5,74.5C 30.1216,78.7781 27.4549,80.6114 23.5,80C 21.9632,81.1096 21.2965,82.6096 21.5,84.5C 20.3882,82.4006 19.7215,80.0673 19.5,77.5C 20.322,75.6115 21.1553,73.6115 22,71.5C 30.5235,64.4153 37.5235,56.082 43,46.5C 51.5543,36.6466 62.0543,29.9799 74.5,26.5C 74.3915,24.4862 75.0582,22.8195 76.5,21.5 Z"/></g>
<g><path style="opacity:1" fill="#985779" d="M 100.5,37.5 C 106.282,42.6174 110.949,48.6174 114.5,55.5C 113.849,56.0906 113.182,56.7573 112.5,57.5C 110.162,55.9893 109.496,56.3227 110.5,58.5C 106.708,61.6008 105.041,65.6008 105.5,70.5C 105.008,72.8185 104.008,74.8185 102.5,76.5C 102.657,75.1266 102.49,73.7932 102,72.5C 99.6667,74.8333 97.3333,77.1667 95,79.5C 96.3996,75.3672 98.3996,71.3672 101,67.5C 102.957,63.6733 103.957,59.6733 104,55.5C 98.0667,75.0644 85.5667,88.3978 66.5,95.5C 68.9266,93.4424 71.5932,91.6091 74.5,90C 86.6803,80.8054 92.847,68.6387 93,53.5C 91.3136,69.777 83.4803,81.6103 69.5,89C 77.2387,79.3567 82.7387,68.5234 86,56.5C 89.949,53.2265 93.1157,49.3931 95.5,45C 94.4238,43.2739 94.2571,41.4406 95,39.5C 95.3333,40.5 95.6667,41.5 96,42.5C 97.7073,40.9625 99.2073,39.2959 100.5,37.5 Z"/></g>
<g><path style="opacity:1" fill="#9d5c7d" d="M 49.5,99.5 C 48.7611,99.369 48.0944,99.5357 47.5,100C 50.6118,102.439 52.9452,105.439 54.5,109C 53.4451,110.507 52.4451,112.007 51.5,113.5C 50.5655,112.432 50.2322,111.099 50.5,109.5C 50.6107,108.883 50.944,108.383 51.5,108C 48.3255,104.595 44.9922,101.429 41.5,98.5C 41.4431,97.391 41.1098,96.391 40.5,95.5C 42.2259,95.8146 43.8925,95.9813 45.5,96C 57.0291,84.1369 68.8624,72.6369 81,61.5C 78.9195,70.6639 74.9195,78.9972 69,86.5C 64.2178,93.4702 57.7178,97.8035 49.5,99.5 Z"/></g>
<g><path style="opacity:1" fill="#b1718e" d="M 83.5,24.5 C 84.6049,25.6005 85.9382,26.2671 87.5,26.5C 89.5,28.1667 91.5,29.8333 93.5,31.5C 89.2849,34.9934 85.7849,38.9934 83,43.5C 82.6667,43.1667 82.3333,42.8333 82,42.5C 80.786,44.0488 79.286,45.2155 77.5,46C 63.7641,62.2256 50.0975,76.0589 36.5,87.5C 34.9737,85.3418 33.4737,85.6751 32,88.5C 31.6667,85.8333 31.3333,83.1667 31,80.5C 30.6667,82.5 30.3333,84.5 30,86.5C 29.5831,87.756 28.7498,88.4226 27.5,88.5C 26.1266,88.3433 24.7932,88.51 23.5,89C 28.5325,90.8197 29.5325,93.8197 26.5,98C 25.5,98.6667 24.5,98.6667 23.5,98C 22.6719,96.0077 21.3386,94.5077 19.5,93.5C 17.8333,90.8333 16.1667,88.1667 14.5,85.5C 15.8333,85.1667 17.1667,84.8333 18.5,84.5C 19.8846,85.5736 21.0513,86.9069 22,88.5C 22.195,87.1807 22.0283,85.8474 21.5,84.5C 21.2965,82.6096 21.9632,81.1096 23.5,80C 27.4549,80.6114 30.1216,78.7781 31.5,74.5C 33.1932,73.7717 34.6932,72.7717 36,71.5C 36.3333,72.8333 36.6667,74.1667 37,75.5C 42.2888,60.6126 51.7888,49.7793 65.5,43C 53.4694,52.9979 45.6361,65.4979 42,80.5C 44.3333,75.8333 46.6667,71.1667 49,66.5C 57.415,51.4164 69.5817,40.5831 85.5,34C 81.1797,34.7977 76.8464,35.4644 72.5,36C 76.4258,32.2447 80.0925,28.4114 83.5,24.5 Z"/></g>
<g><path style="opacity:1" fill="#923e6e" d="M 41.5,98.5 C 44.9922,101.429 48.3255,104.595 51.5,108C 50.944,108.383 50.6107,108.883 50.5,109.5C 47.6916,110.929 44.6916,111.595 41.5,111.5C 41.7135,109.856 41.3802,108.356 40.5,107C 37.8132,106.659 35.8132,105.326 34.5,103C 32.8659,102.506 31.1992,102.34 29.5,102.5C 30.6813,99.4584 32.0146,96.4584 33.5,93.5C 36.1947,95.1776 38.8614,96.8442 41.5,98.5 Z"/></g>
<g><path style="opacity:1" fill="#5e354f" d="M 49.5,99.5 C 49.5,100.167 49.8333,100.5 50.5,100.5C 53.0727,102.91 55.0727,105.743 56.5,109C 55.9251,111.743 54.2585,113.243 51.5,113.5C 52.4451,112.007 53.4451,110.507 54.5,109C 52.9452,105.439 50.6118,102.439 47.5,100C 48.0944,99.5357 48.7611,99.369 49.5,99.5 Z"/></g>
<g><path style="opacity:1" fill="#653250" d="M 27.5,88.5 C 31.9262,90.5482 36.2595,92.8816 40.5,95.5C 41.1098,96.391 41.4431,97.391 41.5,98.5C 38.8614,96.8442 36.1947,95.1776 33.5,93.5C 32.0146,96.4584 30.6813,99.4584 29.5,102.5C 35.8193,111.15 44.1527,116.483 54.5,118.5C 52.629,118.859 51.129,119.859 50,121.5C 49.5172,120.552 49.3505,119.552 49.5,118.5C 41.7872,117.47 35.7872,113.637 31.5,107C 24.1576,105.49 20.1576,100.99 19.5,93.5C 21.3386,94.5077 22.6719,96.0077 23.5,98C 24.5,98.6667 25.5,98.6667 26.5,98C 29.5325,93.8197 28.5325,90.8197 23.5,89C 24.7932,88.51 26.1266,88.3433 27.5,88.5 Z"/></g>
<g><path style="opacity:1" fill="#8d4a6e" d="M 102.5,76.5 C 96.1788,89.6536 86.1788,98.8202 72.5,104C 73.5,104.333 74.5,104.667 75.5,105C 70.212,106.874 64.8787,108.541 59.5,110C 75.6012,108.894 89.4345,102.727 101,91.5C 107.137,84.2282 109.47,75.8948 108,66.5C 108.077,77.3439 104.077,86.3439 96,93.5C 95.8333,93 95.6667,92.5 95.5,92C 99.9426,85.7833 103.609,79.1166 106.5,72C 106.43,71.2352 106.097,70.7352 105.5,70.5C 105.041,65.6008 106.708,61.6008 110.5,58.5C 109.496,56.3227 110.162,55.9893 112.5,57.5C 113.182,56.7573 113.849,56.0906 114.5,55.5C 116.086,59.3427 117.086,63.3427 117.5,67.5C 118,71.835 117.167,75.835 115,79.5C 114.472,75.0539 113.472,70.7205 112,66.5C 108.636,93.5306 93.4695,109.031 66.5,113C 71.259,113.302 75.9257,112.969 80.5,112C 77.6366,113.399 74.6366,114.399 71.5,115C 73.2262,116.53 75.2262,117.53 77.5,118C 73.2478,119.335 68.9145,120.169 64.5,120.5C 61.0968,120.149 57.7635,119.482 54.5,118.5C 44.1527,116.483 35.8193,111.15 29.5,102.5C 31.1992,102.34 32.8659,102.506 34.5,103C 35.8132,105.326 37.8132,106.659 40.5,107C 41.3802,108.356 41.7135,109.856 41.5,111.5C 44.6916,111.595 47.6916,110.929 50.5,109.5C 50.2322,111.099 50.5655,112.432 51.5,113.5C 54.2585,113.243 55.9251,111.743 56.5,109C 55.0727,105.743 53.0727,102.91 50.5,100.5C 56.0225,99.3666 61.3559,97.7 66.5,95.5C 85.5667,88.3978 98.0667,75.0644 104,55.5C 103.957,59.6733 102.957,63.6733 101,67.5C 98.3996,71.3672 96.3996,75.3672 95,79.5C 97.3333,77.1667 99.6667,74.8333 102,72.5C 102.49,73.7932 102.657,75.1266 102.5,76.5 Z"/></g>
<g><path style="opacity:1" fill="#a2537e" d="M 102.5,76.5 C 104.008,74.8185 105.008,72.8185 105.5,70.5C 106.097,70.7352 106.43,71.2352 106.5,72C 103.609,79.1166 99.9426,85.7833 95.5,92C 95.6667,92.5 95.8333,93 96,93.5C 104.077,86.3439 108.077,77.3439 108,66.5C 109.47,75.8948 107.137,84.2282 101,91.5C 89.4345,102.727 75.6012,108.894 59.5,110C 64.8787,108.541 70.212,106.874 75.5,105C 74.5,104.667 73.5,104.333 72.5,104C 86.1788,98.8202 96.1788,89.6536 102.5,76.5 Z"/></g>
<g><path style="opacity:1" fill="#823d63" d="M 117.5,67.5 C 120.268,85.6923 114.935,101.192 101.5,114C 90.0366,121.384 77.7032,123.551 64.5,120.5C 68.9145,120.169 73.2478,119.335 77.5,118C 75.2262,117.53 73.2262,116.53 71.5,115C 74.6366,114.399 77.6366,113.399 80.5,112C 75.9257,112.969 71.259,113.302 66.5,113C 93.4695,109.031 108.636,93.5306 112,66.5C 113.472,70.7205 114.472,75.0539 115,79.5C 117.167,75.835 118,71.835 117.5,67.5 Z"/></g>
<g><path style="opacity:0.063" fill="#40652b" d="M 25.5,127.5 C 26.1667,126.167 26.8333,126.167 27.5,127.5C 26.8333,127.5 26.1667,127.5 25.5,127.5 Z"/></g>
</svg>
