<?xml version="1.0" encoding="UTF-8"?>
<!DOCTYPE svg PUBLIC "-//W3C//DTD SVG 1.1//EN" "http://www.w3.org/Graphics/SVG/1.1/DTD/svg11.dtd">
<svg xmlns="http://www.w3.org/2000/svg" version="1.1" width="32px" height="32px" style="shape-rendering:geometricPrecision; text-rendering:geometricPrecision; image-rendering:optimizeQuality; fill-rule:evenodd; clip-rule:evenodd" xmlns:xlink="http://www.w3.org/1999/xlink">
<g><path style="opacity:1" fill="#000000" d="M 13.5,-0.5 C 13.8333,-0.5 14.1667,-0.5 14.5,-0.5C 14.5,-0.166667 14.5,0.166667 14.5,0.5C 14.1667,0.166667 13.8333,-0.166667 13.5,-0.5 Z"/></g>
<g><path style="opacity:1" fill="#2e1f26" d="M 15.5,-0.5 C 15.8333,-0.5 16.1667,-0.5 16.5,-0.5C 17.1098,0.391047 17.4431,1.39105 17.5,2.5C 16.609,1.89022 15.609,1.55688 14.5,1.5C 14.5,1.16667 14.5,0.833333 14.5,0.5C 15.1667,0.5 15.5,0.166667 15.5,-0.5 Z"/></g>
<g><path style="opacity:1" fill="#000000" d="M 18.5,4.5 C 19.5,4.83333 20.1667,5.5 20.5,6.5C 19.5084,6.67158 18.8417,6.33825 18.5,5.5C 18.5,5.16667 18.5,4.83333 18.5,4.5 Z"/></g>
<g><path style="opacity:1" fill="#bc3065" d="M 14.5,1.5 C 15.609,1.55688 16.609,1.89022 17.5,2.5C 18.3382,2.84171 18.6716,3.50838 18.5,4.5C 18.5,4.83333 18.5,5.16667 18.5,5.5C 17.9569,5.55999 17.6236,5.89333 17.5,6.5C 18.6402,10.3454 20.3069,13.8454 22.5,17C 22.4023,19.6179 22.4023,22.6179 22.5,26C 20.5755,29.7761 18.7422,29.9427 17,26.5C 16.6232,27.9423 15.7899,28.9423 14.5,29.5C 14.8245,22.3134 14.4912,15.3134 13.5,8.5C 13.0269,7.09368 12.0269,6.42702 10.5,6.5C 12.5363,5.37377 13.8697,3.7071 14.5,1.5 Z"/></g>
<g><path style="opacity:1" fill="#810f52" d="M 18.5,5.5 C 18.8417,6.33825 19.5084,6.67158 20.5,6.5C 21.4916,6.32842 22.1583,6.66175 22.5,7.5C 21.8764,9.50527 22.7097,11.1719 25,12.5C 27.1574,15.8649 26.9908,19.0316 24.5,22C 24.2047,23.7137 24.5381,25.547 25.5,27.5C 24.0158,29.0737 22.3492,30.407 20.5,31.5C 16.8333,31.5 13.1667,31.5 9.5,31.5C 9.5,31.1667 9.5,30.8333 9.5,30.5C 10.5,30.5 11.5,30.5 12.5,30.5C 13.4916,30.6716 14.1583,30.3382 14.5,29.5C 15.7899,28.9423 16.6232,27.9423 17,26.5C 18.7422,29.9427 20.5755,29.7761 22.5,26C 22.4023,22.6179 22.4023,19.6179 22.5,17C 20.3069,13.8454 18.6402,10.3454 17.5,6.5C 17.6236,5.89333 17.9569,5.55999 18.5,5.5 Z"/></g>
<g><path style="opacity:1" fill="#f25a8c" d="M 13.5,8.5 C 14.4912,15.3134 14.8245,22.3134 14.5,29.5C 14.1583,30.3382 13.4916,30.6716 12.5,30.5C 8.54129,24.9553 7.70796,18.9553 10,12.5C 11.0319,10.9733 12.1986,9.63997 13.5,8.5 Z"/></g>
<g><path style="opacity:1" fill="#c76c91" d="M 10.5,6.5 C 12.0269,6.42702 13.0269,7.09368 13.5,8.5C 12.1986,9.63997 11.0319,10.9733 10,12.5C 7.70796,18.9553 8.54129,24.9553 12.5,30.5C 11.5,30.5 10.5,30.5 9.5,30.5C 0.287441,26.2898 -1.87923,19.6231 3,10.5C 4.48765,8.83997 6.32099,7.83997 8.5,7.5C 8.84171,6.66175 9.50838,6.32842 10.5,6.5 Z"/></g>
<g><path style="opacity:1" fill="#ffbcee" d="M 8.5,7.5 C 9.37644,7.36912 10.0431,7.70245 10.5,8.5C 9.081,10.3359 7.91434,12.3359 7,14.5C 6.63688,18.866 6.63688,23.1994 7,27.5C 3.81413,23.7016 2.81413,19.3683 4,14.5C 5.74983,12.2657 7.24983,9.93236 8.5,7.5 Z"/></g>
<g><path style="opacity:1" fill="#570b31" d="M 22.5,7.5 C 28.8891,9.93806 31.3891,14.6047 30,21.5C 29.2082,24.1064 27.7082,26.1064 25.5,27.5C 24.5381,25.547 24.2047,23.7137 24.5,22C 26.9908,19.0316 27.1574,15.8649 25,12.5C 22.7097,11.1719 21.8764,9.50527 22.5,7.5 Z"/></g>
</svg>
